<?xml version="1.0" encoding="utf-8"?>
<!-- Generator: Adobe Illustrator 19.1.0, SVG Export Plug-In . SVG Version: 6.00 Build 0)  -->
<svg version="1.1" id="Layer_1" xmlns="http://www.w3.org/2000/svg" xmlns:xlink="http://www.w3.org/1999/xlink" x="0px" y="0px"
	 width="414px" height="64px" viewBox="0 0 414 64" style="enable-background:new 0 0 414 64;" xml:space="preserve">
<style type="text/css">
	.st0{fill:#E8178C;}
	.st1{fill:#61308E;}
</style>
<g>
	<path class="st0" d="M38.1,1.3l-9.1,27.6l10,33.5H22.5l-6.4-26.2v26.2H0.2V1.3h15.9V25l7.1-23.7H38.1z"/>
	<path class="st0" d="M41.7,1.3h26.5v12.2H57.6v11.6h9.9v11.6h-9.9v13.4h11.7v12.2H41.7V1.3z"/>
	<path class="st0" d="M89.7,1.3v48.9h9.7v12.2H73.8V1.3H89.7z"/>
	<path class="st0" d="M119.1,1.3v48.9h9.7v12.2h-25.6V1.3H119.1z"/>
	<path class="st0" d="M161.4,1.3l-11.6,39v22.1h-14.7V40.3L124,1.3h14.6c2.3,11.9,3.6,20,3.9,24.1c0.9-6.5,2.4-14.5,4.4-24.1H161.4z
		"/>
	<path class="st0" d="M164.2,1.3h26.5v12.2h-10.6v11.6h9.9v11.6h-9.9v13.4h11.7v12.2h-27.6V1.3z"/>
	<path class="st1" d="M232.8,23.8h-15.9v-5.5c0-3.5-0.2-5.7-0.5-6.6c-0.3-0.9-1-1.3-2.2-1.3c-1,0-1.6,0.4-2,1.1
		c-0.4,0.8-0.5,2.7-0.5,5.8v29.3c0,2.7,0.2,4.5,0.5,5.4c0.4,0.9,1.1,1.3,2.1,1.3c1.2,0,1.9-0.5,2.4-1.5c0.4-1,0.6-2.9,0.6-5.7v-7.2
		h-3.2v-9.3h18.6v32.8h-10l-1.5-4.4c-1.1,1.9-2.4,3.3-4.1,4.2c-1.6,0.9-3.6,1.4-5.8,1.4c-2.7,0-5.2-0.6-7.5-1.9
		c-2.3-1.3-4.1-2.9-5.3-4.8c-1.2-1.9-2-3.9-2.3-6c-0.3-2.1-0.5-5.3-0.5-9.5V23.3c0-5.8,0.3-10.1,0.9-12.7c0.6-2.6,2.4-5.1,5.4-7.3
		c3-2.2,6.8-3.3,11.6-3.3c4.7,0,8.5,1,11.6,2.9s5.1,4.2,6,6.8c0.9,2.6,1.4,6.4,1.4,11.5V23.8z"/>
	<path class="st1" d="M238.9,1.3h11.2c7.5,0,12.6,0.3,15.2,0.9c2.7,0.6,4.8,2.1,6.5,4.4s2.5,6.2,2.5,11.4c0,4.8-0.6,8-1.8,9.6
		c-1.2,1.6-3.5,2.6-7,2.9c3.1,0.8,5.3,1.8,6.3,3.1c1.1,1.3,1.8,2.5,2,3.6c0.3,1.1,0.4,4.1,0.4,9v16.1h-14.8V42.1
		c0-3.3-0.3-5.3-0.8-6.1c-0.5-0.8-1.9-1.2-4.1-1.2v27.6h-15.9V1.3z M254.8,11.7v13.6c1.8,0,3-0.2,3.8-0.7c0.7-0.5,1.1-2.1,1.1-4.8
		v-3.4c0-1.9-0.3-3.2-1-3.8S256.6,11.7,254.8,11.7z"/>
	<path class="st1" d="M280.6,1.3h26.5v12.2h-10.6v11.6h9.9v11.6h-9.9v13.4h11.7v12.2h-27.6V1.3z"/>
	<path class="st1" d="M312.7,1.3h26.5v12.2h-10.6v11.6h9.9v11.6h-9.9v13.4h11.7v12.2h-27.6V1.3z"/>
	<path class="st1" d="M380.3,1.3v61.1h-13.9l-8.3-27.8v27.8h-13.3V1.3h13.3l8.9,27.5V1.3H380.3z"/>
	<path class="st1" d="M386.7,1.3h26.5v12.2h-10.6v11.6h9.9v11.6h-9.9v13.4h11.7v12.2h-27.6V1.3z"/>
</g>
</svg>
